<?xml version="1.0" encoding="utf-8"?>
<!-- Generator: Adobe Illustrator 19.2.0, SVG Export Plug-In . SVG Version: 6.00 Build 0)  -->
<svg version="1.1" id="Capa_1" xmlns="http://www.w3.org/2000/svg" xmlns:xlink="http://www.w3.org/1999/xlink" x="0px" y="0px"
	 viewBox="0 0 57 57" style="enable-background:new 0 0 57 57;" xml:space="preserve">
<style type="text/css">
	.st0{fill:#909090;}
</style>
<g>
	<path class="st0" d="M56,41.1c-0.4-4.1-3.5-7.1-7.3-7.1c-2.4,0-4.4,1.4-5.7,3.2c-1.3-1.8-3.3-3.2-5.7-3.2c-3.8,0-6.9,3-7.3,7.1
		c0,0.3-0.1,1.2,0.2,2.7c0.5,2.2,1.8,4.2,3.6,5.8l8.3,7.1c0.2,0.2,0.5,0.3,0.8,0.3c0.3,0,0.5-0.1,0.8-0.3l8.3-7.1
		c1.8-1.6,3.1-3.6,3.6-5.8C56.1,42.3,56,41.4,56,41.1z M53.8,43.3c-0.4,1.8-1.5,3.4-3,4.7L43,54.7l-7.8-6.7c-1.5-1.3-2.5-2.9-3-4.7
		c-0.3-1.2-0.2-1.9-0.2-1.9l0-0.1c0.2-2.6,2.1-5.3,5.3-5.3c2.2,0,4,1.8,4.8,3.6l0.9,2.1l0.9-2.1c0.8-1.8,2.6-3.6,4.8-3.6
		c3.1,0,5,2.7,5.3,5.4C54,41.4,54.1,42.1,53.8,43.3z"/>
	<path class="st0" d="M37,32h9V21h-9h-2h-7h-2h-7h-2H8v9v2v7v2v9h9h2h9v-9v-2v-7h7H37z M37,23h7v7h-7V23z M19,23h7v7h-7V23z M10,23
		h7v7h-7C10,30,10,23,10,23z M10,32h7v7h-7C10,39,10,32,10,32z M17,48h-7v-7h7V48z M26,48h-7v-7h7V48z M26,39h-7v-7h7V39z M28,30v-7
		h7v7H28z"/>
	<path class="st0" d="M27,55H3V16h48v13c0,0.6,0.4,1,1,1s1-0.4,1-1V15V5c0-0.6-0.4-1-1-1h-5V1c0-0.6-0.4-1-1-1h-7c-0.6,0-1,0.4-1,1
		v3H16V1c0-0.6-0.4-1-1-1H8C7.4,0,7,0.4,7,1v3H2C1.4,4,1,4.4,1,5v10v41c0,0.6,0.4,1,1,1h25c0.6,0,1-0.4,1-1S27.6,55,27,55z M40,2h5
		v3v3h-5V5V2z M9,2h5v3v3H9V5V2z M3,6h4v3c0,0.6,0.4,1,1,1h7c0.6,0,1-0.4,1-1V6h22v3c0,0.6,0.4,1,1,1h7c0.6,0,1-0.4,1-1V6h4v8H3
		C3,14,3,6,3,6z"/>
</g>
</svg>
