<svg id="Capa_1" data-name="Capa 1" xmlns="http://www.w3.org/2000/svg" viewBox="0 0 512 392.93"><defs><style>.cls-1{fill:#fff;}</style></defs><title>google-plus</title><path class="cls-1" d="M392.93,234.17H209.56v61.12H321.44A131,131,0,1,1,289.58,163.9l44.37-48.23A195.81,195.81,0,0,0,196.46,59.54C88,59.54,0,147.5,0,256S88,452.46,196.46,452.46c95,0,178.26-67.5,196.47-157.17V234.17h0Z" transform="translate(0 -59.54)"/><polygon class="cls-1" points="512 174.53 474.49 174.53 474.49 137.02 442.34 137.02 442.34 174.53 404.84 174.53 404.84 206.68 442.34 206.68 442.34 244.18 474.49 244.18 474.49 206.68 512 206.68 512 174.53"/></svg>