<?xml version="1.0" encoding="iso-8859-1"?>
<!-- Generator: Adobe Illustrator 18.0.0, SVG Export Plug-In . SVG Version: 6.00 Build 0)  -->
<!DOCTYPE svg PUBLIC "-//W3C//DTD SVG 1.1//EN" "http://www.w3.org/Graphics/SVG/1.1/DTD/svg11.dtd">
<svg version="1.1" id="Capa_1" xmlns="http://www.w3.org/2000/svg" xmlns:xlink="http://www.w3.org/1999/xlink" x="0px" y="0px"
	 viewBox="0 0 378.483 378.483" style="enable-background:new 0 0 378.483 378.483;" xml:space="preserve">
<g>
	<g>
		<path style="fill:#FFBBD2;" d="M196.234,220.912c-9.745-17.465-9.209-32.107-6.854-41.59
			c4.836-19.469,21.951-33.602,40.697-33.602c10.308,0,19.787,4.068,27.552,11.652c10.925-27.711,0.854-51.553-16.633-61.978
			c-14.29-8.518-36.621-9.398-52.537,16.156c-1.369,2.199-3.776,3.535-6.366,3.535c-2.59,0-4.997-1.338-6.366-3.535
			c-10.286-16.514-25.228-24.066-40.985-20.723c-16.766,3.557-29.764,18.354-32.345,36.816
			c-2.288,16.367,1.043,58.676,79.695,101.478C187.008,226.445,191.728,223.697,196.234,220.912z"/>
		<path style="fill:#3CBCC6;" d="M346.982,4.307H74.568c-17.37,0-31.501,14.131-31.501,31.498V282.15l-42.218,81.06
			c-1.419,2.723-1.034,6.035,0.971,8.361c1.451,1.684,3.538,2.604,5.682,2.604c0.817,0,1.643-0.135,2.444-0.41l98.726-34.045
			h238.311c17.37,0,31.501-14.131,31.501-31.5V35.805C378.483,18.438,364.352,4.307,346.982,4.307z M363.483,308.221
			c0,9.098-7.402,16.5-16.501,16.5H107.414c-0.832,0-1.658,0.139-2.445,0.41l-82.125,28.32l34.375-66
			c0.557-1.07,0.848-2.258,0.848-3.465V35.805c0-9.098,7.402-16.498,16.501-16.498h272.414c9.099,0,16.501,7.4,16.501,16.498
			V308.221z"/>
		<path style="fill:#3CBCC6;" d="M288.53,145.721c-4.334,0-8.519,0.729-12.494,2.125c5.506-29.014-7.458-53.469-27.359-65.334
			c-18.909-11.275-46.563-11.371-66.6,12.342c-13.407-15.756-31.656-22.68-50.449-18.699c-22.918,4.863-40.636,24.721-44.087,49.414
			c-2.759,19.738,0.589,70.816,91.043,118.697c1.098,0.58,2.303,0.871,3.509,0.871c1.205,0,2.411-0.291,3.509-0.871
			c6.675-3.533,13.065-7.199,19.086-10.936c11.533,14.324,28.659,27.566,51.107,39.449c1.098,0.58,2.303,0.871,3.509,0.871
			s2.411-0.291,3.509-0.871c26.615-14.09,45.782-30.082,56.969-47.533c12.418-19.375,11.989-35.668,9.442-45.924
			C324.388,159.852,307.275,145.721,288.53,145.721z M102.397,127.645c2.581-18.463,15.579-33.26,32.345-36.816
			c15.758-3.344,30.699,4.209,40.985,20.723c1.369,2.197,3.776,3.535,6.366,3.535c2.59,0,4.997-1.336,6.366-3.535
			c15.916-25.555,38.247-24.674,52.537-16.156c17.486,10.426,27.558,34.268,16.633,61.978c-7.765-7.584-17.244-11.652-27.552-11.652
			c-18.746,0-35.861,14.133-40.697,33.602c-2.355,9.482-2.891,24.125,6.854,41.59c-4.507,2.785-9.227,5.533-14.143,8.211
			C103.439,186.32,100.109,144.012,102.397,127.645z M259.304,257.629c-60.27-33.158-57.66-65.449-55.365-74.691
			c3.196-12.873,14.189-22.217,26.139-22.217c8.843,0,16.962,5.217,22.86,14.688c1.369,2.199,3.776,3.535,6.366,3.535
			s4.997-1.336,6.366-3.535c5.899-9.471,14.018-14.688,22.86-14.688c11.947,0,22.938,9.344,26.135,22.217
			C316.96,192.18,319.57,224.473,259.304,257.629z"/>
	</g>
</g>
<g>
</g>
<g>
</g>
<g>
</g>
<g>
</g>
<g>
</g>
<g>
</g>
<g>
</g>
<g>
</g>
<g>
</g>
<g>
</g>
<g>
</g>
<g>
</g>
<g>
</g>
<g>
</g>
<g>
</g>
</svg>
