<?xml version="1.0" encoding="iso-8859-1"?>
<!-- Generator: Adobe Illustrator 18.0.0, SVG Export Plug-In . SVG Version: 6.00 Build 0)  -->
<!DOCTYPE svg PUBLIC "-//W3C//DTD SVG 1.1//EN" "http://www.w3.org/Graphics/SVG/1.1/DTD/svg11.dtd">
<svg version="1.1" id="Capa_1" xmlns="http://www.w3.org/2000/svg" xmlns:xlink="http://www.w3.org/1999/xlink" x="0px" y="0px"
	 viewBox="0 0 373.903 373.903" style="enable-background:new 0 0 373.903 373.903;" xml:space="preserve">
<g>
	<g>
		<path style="fill:#FFBBD2;" d="M161.45,259.277h10.43l-16.08-69.486c-0.936-4.036,1.58-8.064,5.615-8.998
			c4.033-0.935,8.064,1.581,8.998,5.616l16.539,71.47l16.539-71.47c0.934-4.035,4.969-6.545,8.996-5.616
			c4.037,0.934,6.551,4.962,5.617,8.998l-16.08,69.486h10.43l67.176-113.785H94.274L161.45,259.277z"/>
		<path style="fill:#FFBBD2;" d="M194.452,274.277v50.113c0,4.143-3.357,7.5-7.5,7.5c-4.143,0-7.5-3.357-7.5-7.5v-50.113h-15.395
			l-7.197,84.626h60.184l-7.197-84.626H194.452z"/>
		<path style="fill:#3CBCC6;" d="M297.26,131.995c8.451-8.398,13.703-20.012,13.703-32.839c0-16.786-9.117-32.298-23.797-40.484
			c-3.584-1.998-8.1-0.749-10.148,2.8l-12.391,21.464l-5.432-9.405c8.275-8.58,12.93-19.958,12.93-32.095
			c0-16.784-9.117-32.296-23.797-40.484c-3.578-1.997-8.098-0.75-10.148,2.8L225.79,25.216L213.395,3.752
			c-2.047-3.549-6.566-4.798-10.149-2.8c-6.719,3.748-12.24,9.05-16.283,15.289c-4.049-6.242-9.586-11.54-16.309-15.29
			c-3.58-1.997-8.1-0.75-10.148,2.8l-12.393,21.465L135.719,3.752c-2.049-3.549-6.566-4.798-10.148-2.8
			c-14.678,8.187-23.795,23.699-23.795,40.483c0,12.067,4.656,23.512,12.924,32.106l-5.422,9.394L96.883,61.472
			c-2.047-3.549-6.566-4.796-10.148-2.8c-14.678,8.187-23.795,23.7-23.795,40.483c0,12.828,5.244,24.447,13.697,32.842
			c-0.807,0.605-1.498,1.372-2.014,2.276c-1.336,2.338-1.314,5.212,0.055,7.531l74.812,126.722l-8.27,97.24
			c-0.178,2.092,0.529,4.163,1.949,5.709c1.42,1.547,3.424,2.427,5.523,2.427h76.516c2.1,0,4.104-0.88,5.523-2.427
			c1.42-1.546,2.127-3.617,1.949-5.709l-8.271-97.24l74.814-126.722c1.369-2.319,1.391-5.193,0.055-7.531
			C298.762,133.368,298.069,132.6,297.26,131.995z M204.54,18.412l14.754,25.554c1.34,2.32,3.816,3.75,6.496,3.75
			c2.68,0,5.154-1.43,6.494-3.75l14.754-25.554c6.346,5.866,10.088,14.184,10.088,23.024c0,6.783-2.15,13.217-6.053,18.524
			c-2.313-2.345-5.979-2.966-8.988-1.288c-6.713,3.745-12.256,9.026-16.303,15.258c-4.047-6.229-9.576-11.515-16.289-15.258
			c-3.004-1.676-6.666-1.059-8.979,1.279c-3.902-5.32-6.064-11.771-6.064-18.514C194.45,32.597,198.192,24.278,204.54,18.412z
			 M156.86,358.903l7.197-84.626h15.395v50.113c0,4.143,3.357,7.5,7.5,7.5c4.143,0,7.5-3.357,7.5-7.5v-50.113h15.395l7.197,84.626
			H156.86z M212.454,259.277h-10.43l16.08-69.486c0.934-4.036-1.58-8.064-5.617-8.998c-4.027-0.929-8.063,1.581-8.996,5.616
			l-16.539,71.47l-16.539-71.47c-0.934-4.036-4.965-6.551-8.998-5.616c-4.035,0.934-6.551,4.962-5.615,8.998l16.08,69.486h-10.43
			L94.274,145.492h185.355L212.454,259.277z M143.338,130.492c1.748-1.906,3.35-3.95,4.766-6.126
			c1.418,2.176,3.02,4.222,4.771,6.126H143.338z M221.02,130.492c1.752-1.906,3.351-3.954,4.771-6.132
			c1.416,2.18,3.023,4.223,4.773,6.132H221.02z M186.965,66.713c1.576,2.419,3.406,4.683,5.43,6.794l-5.443,9.428l-5.434-9.411
			C183.553,71.41,185.383,69.137,186.965,66.713z M180.456,101.685c1.34,2.32,3.816,3.75,6.496,3.75s5.154-1.43,6.494-3.75
			l14.756-25.554c6.346,5.865,10.088,14.185,10.088,23.024c0,17.279-14.059,31.337-31.338,31.337s-31.338-14.058-31.338-31.337
			c0-8.839,3.742-17.158,10.09-23.023L180.456,101.685z M126.864,18.413l14.754,25.553c1.34,2.32,3.816,3.75,6.496,3.75
			s5.154-1.43,6.494-3.75l14.754-25.554c6.348,5.865,10.088,14.184,10.088,23.024c0,6.782-2.156,13.21-6.061,18.515
			c-2.311-2.338-5.973-2.955-8.979-1.279c-6.719,3.749-12.256,9.043-16.303,15.281c-4.043-6.238-9.572-11.534-16.291-15.281
			c-3.004-1.675-6.664-1.06-8.977,1.276c-3.902-5.319-6.064-11.768-6.064-18.512C116.776,32.597,120.518,24.278,126.864,18.413z
			 M88.028,76.132l14.754,25.553c1.34,2.321,3.816,3.75,6.496,3.75c2.68,0,5.154-1.43,6.494-3.75l14.754-25.553
			c6.346,5.865,10.088,14.184,10.088,23.023c0,17.279-14.057,31.337-31.336,31.337S77.94,116.434,77.94,99.155
			C77.94,90.316,81.682,81.997,88.028,76.132z M264.627,130.492c-17.279,0-31.338-14.058-31.338-31.337
			c0-8.839,3.742-17.158,10.088-23.023l14.754,25.553c1.34,2.321,3.816,3.75,6.496,3.75s5.154-1.43,6.494-3.75l14.754-25.554
			c6.346,5.865,10.088,14.184,10.088,23.024C295.963,116.434,281.907,130.492,264.627,130.492z"/>
	</g>
</g>
<g>
</g>
<g>
</g>
<g>
</g>
<g>
</g>
<g>
</g>
<g>
</g>
<g>
</g>
<g>
</g>
<g>
</g>
<g>
</g>
<g>
</g>
<g>
</g>
<g>
</g>
<g>
</g>
<g>
</g>
</svg>
