<?xml version="1.0" encoding="iso-8859-1"?>
<!-- Generator: Adobe Illustrator 18.0.0, SVG Export Plug-In . SVG Version: 6.00 Build 0)  -->
<!DOCTYPE svg PUBLIC "-//W3C//DTD SVG 1.1//EN" "http://www.w3.org/Graphics/SVG/1.1/DTD/svg11.dtd">
<svg version="1.1" id="Capa_1" xmlns="http://www.w3.org/2000/svg" xmlns:xlink="http://www.w3.org/1999/xlink" x="0px" y="0px"
	 viewBox="0 0 373.547 373.547" style="enable-background:new 0 0 373.547 373.547;" xml:space="preserve">
<g>
	<g>
		<path style="fill:#FFBBD2;" d="M147.793,194.273h-38.394c-4.143,0-7.5-3.357-7.5-7.5s3.357-7.5,7.5-7.5h38.394v-13.094
			l-89.439-39.832v120.852l89.439-39.83V194.273z"/>
		<path style="fill:#FFBBD2;" d="M315.193,126.347l-89.439,39.832v13.094h33.392c4.143,0,7.5,3.357,7.5,7.5s-3.357,7.5-7.5,7.5
			h-33.392v13.096l89.439,39.83V126.347z"/>
		<path style="fill:#3CBCC6;" d="M366.047,152.946h-35.854v-38.148c0-2.541-1.285-4.908-3.414-6.291
			c-2.131-1.383-4.816-1.594-7.137-0.561l-104.441,46.512c-0.186,0.084-0.35,0.197-0.527,0.295
			c-5.465-5.109-12.531-8.201-20.244-8.201h-15.311c-7.709,0-14.771,3.088-20.234,8.189c-0.178-0.096-0.352-0.199-0.539-0.283
			L53.904,107.946c-2.318-1.031-5.006-0.82-7.137,0.561c-2.129,1.383-3.414,3.75-3.414,6.291v38.148H7.5c-4.143,0-7.5,3.357-7.5,7.5
			v52.652c0,4.143,3.357,7.5,7.5,7.5h35.854v38.15c0,2.539,1.285,4.906,3.414,6.289c1.236,0.803,2.656,1.211,4.086,1.211
			c1.035,0,2.076-0.215,3.051-0.648l104.441-46.514c0.188-0.082,0.359-0.189,0.537-0.287c5.463,5.104,12.525,8.193,20.236,8.193
			h15.311c7.703,0,14.762-3.084,20.223-8.182c0.18,0.1,0.359,0.195,0.549,0.279l104.441,46.51c0.975,0.434,2.016,0.648,3.051,0.648
			c1.428,0,2.85-0.408,4.086-1.211c2.129-1.383,3.414-3.75,3.414-6.289v-38.15h35.854c4.143,0,7.5-3.357,7.5-7.5v-52.652
			C373.547,156.304,370.189,152.946,366.047,152.946z M43.354,205.599H15v-37.652h28.354V205.599z M58.354,126.347l89.439,39.832
			v13.094h-38.394c-4.143,0-7.5,3.357-7.5,7.5s3.357,7.5,7.5,7.5h38.394v13.096l-89.439,39.83V126.347z M210.754,192.503
			c0,10.746-7.324,19.49-16.324,19.49h-15.311c-9.002,0-16.326-8.744-16.326-19.49v-11.461c0-10.748,7.324-19.49,16.326-19.49
			h15.311c9,0,16.324,8.742,16.324,19.49V192.503z M225.754,194.273h33.392c4.143,0,7.5-3.357,7.5-7.5s-3.357-7.5-7.5-7.5h-33.392
			v-13.094l89.439-39.832v120.852l-89.439-39.83V194.273z M358.547,205.599h-28.354v-37.652h28.354V205.599z"/>
	</g>
</g>
<g>
</g>
<g>
</g>
<g>
</g>
<g>
</g>
<g>
</g>
<g>
</g>
<g>
</g>
<g>
</g>
<g>
</g>
<g>
</g>
<g>
</g>
<g>
</g>
<g>
</g>
<g>
</g>
<g>
</g>
</svg>
