<?xml version="1.0" encoding="iso-8859-1"?>
<!-- Generator: Adobe Illustrator 18.0.0, SVG Export Plug-In . SVG Version: 6.00 Build 0)  -->
<!DOCTYPE svg PUBLIC "-//W3C//DTD SVG 1.1//EN" "http://www.w3.org/Graphics/SVG/1.1/DTD/svg11.dtd">
<svg version="1.1" id="Capa_1" xmlns="http://www.w3.org/2000/svg" xmlns:xlink="http://www.w3.org/1999/xlink" x="0px" y="0px"
	 viewBox="0 0 421.885 421.885" style="enable-background:new 0 0 421.885 421.885;" xml:space="preserve">
<g>
	<g>
		<path style="fill:#3CBCC6;" d="M387.893,322.448h-28.888V221.742c0-4.142-3.357-7.5-7.5-7.5h-37.068v-78.163
			c0-4.142-3.357-7.5-7.5-7.5h-39.211V70.894c0-4.142-3.357-7.5-7.5-7.5h-25.115c5.102-4.491,9.221-9.201,12.3-14.108
			c7.484-11.931,7.126-22.003,5.508-28.351C249.776,8.608,239.236,0,227.287,0c-5.991,0-11.646,2.228-16.349,6.308
			C206.237,2.228,200.584,0,194.594,0c-11.944,0-22.482,8.608-25.624,20.933c-1.619,6.349-1.979,16.421,5.502,28.351
			c3.077,4.908,7.195,9.619,12.296,14.11h-25.108c-4.143,0-7.5,3.358-7.5,7.5v57.686h-39.211c-4.143,0-7.5,3.358-7.5,7.5v78.163
			H70.38c-4.143,0-7.5,3.358-7.5,7.5v100.706H33.992c-4.143,0-7.5,3.357-7.5,7.5c0,4.142,3.357,7.5,7.5,7.5h67.179
			c12.992,18.596,49.129,28.293,82.147,31.465v11.582l-37.056,27.9c-2.577,1.94-3.625,5.311-2.602,8.369
			c1.023,3.059,3.888,5.121,7.113,5.121h120.34c3.226,0,6.09-2.063,7.113-5.121c1.022-3.059-0.025-6.43-2.603-8.371l-37.058-27.898
			v-11.582c33.018-3.172,69.156-12.869,82.148-31.465h67.179c4.143,0,7.5-3.358,7.5-7.5
			C395.393,325.805,392.035,322.448,387.893,322.448z M169.159,78.394h83.566v10.918h-83.566V78.394z M220.697,156.27
			c-4.102,6.154-6.134,8.66-9.758,8.66c-3.626,0-5.657-2.506-9.76-8.66c-2.848-4.272-6.402-9.571-11.935-12.691h43.387
			C227.099,146.7,223.544,151.999,220.697,156.27z M252.726,128.579h-83.566v-24.268h83.566V128.579z M122.449,161.311
			c0.689,0.954,1.43,2.037,2.258,3.279c4.315,6.474,10.226,15.34,22.238,15.34c12.013,0,17.923-8.866,22.238-15.34
			c0.721-1.08,1.374-2.042,1.986-2.904c1.86-2.616,3.318-4.252,4.922-5.082c0.875-0.453,1.794-0.674,2.85-0.674
			c3.624,0,5.655,2.507,9.758,8.66c4.315,6.474,10.226,15.34,22.24,15.34c12.013,0,17.923-8.866,22.238-15.34
			c0.287-0.43,0.561-0.837,0.828-1.232c1.552-2.287,2.807-3.985,4.006-5.179c1.556-1.549,3.021-2.249,4.924-2.249
			c3.626,0,5.657,2.507,9.76,8.66c4.316,6.474,10.227,15.34,22.242,15.34c12.014,0,17.925-8.866,22.24-15.34
			c0.828-1.242,1.57-2.33,2.26-3.284v52.936H122.449V161.311z M338.893,229.242c-7.196,2.803-12.037,7.731-16.185,11.98
			c-5.52,5.653-9.507,9.738-18.062,9.738c-8.555,0-12.542-4.085-18.062-9.738c-4.144-4.244-8.976-9.169-16.152-11.98H338.893z
			 M284.697,156.27c-4.103,6.154-6.134,8.66-9.76,8.66c-3.627,0-5.658-2.506-9.762-8.661c-2.849-4.271-6.403-9.57-11.936-12.69
			h43.427C291.116,146.691,287.548,151.992,284.697,156.27z M168.637,143.579c-5.532,3.121-9.087,8.42-11.934,12.691
			c-4.103,6.154-6.134,8.66-9.758,8.66c-3.624,0-5.655-2.506-9.758-8.66c-2.849-4.272-6.402-9.574-11.939-12.691H168.637z
			 M151.44,229.242c-7.176,2.811-12.008,7.736-16.15,11.98c-5.519,5.653-9.506,9.738-18.059,9.738s-12.539-4.085-18.058-9.738
			c-4.148-4.25-8.995-9.177-16.195-11.98H151.44z M192.876,241.223c-4.143-4.244-8.975-9.169-16.15-11.98h68.42
			c-7.176,2.811-12.008,7.736-16.15,11.98c-5.518,5.653-9.506,9.738-18.059,9.738c-3.295,0-5.909-0.61-8.197-1.679
			c-2.449-1.145-4.526-2.817-6.649-4.845C195.047,243.442,193.993,242.367,192.876,241.223z M183.504,24.64
			c1.425-5.586,6.089-9.64,11.09-9.64c3.807,0,7.239,2.347,9.928,6.785c1.358,2.244,3.791,3.614,6.414,3.615h0.001
			c2.623,0,5.055-1.37,6.414-3.613c2.69-4.44,6.127-6.787,9.937-6.787c5.005,0,9.672,4.055,11.096,9.64
			c2.347,9.205-3.78,23.713-27.445,37.636C187.283,48.354,181.157,33.844,183.504,24.64z M231.145,354.485
			c-0.026,0-0.053-0.004-0.079-0.004c-4.142,0-7.5,3.357-7.5,7.5v22.254c0,2.355,1.107,4.576,2.989,5.992l22.126,16.658h-75.478
			l22.125-16.658c1.883-1.418,2.989-3.637,2.989-5.992v-22.254c0-4.143-3.357-7.5-7.5-7.5c-0.026,0-0.052,0.004-0.078,0.004
			c-30.747-2.211-53.932-9.186-67.092-17.037h174.598C285.085,345.299,261.894,352.274,231.145,354.485z M344.005,322.448H77.88
			v-79.101c3.996,1.652,6.956,4.662,10.559,8.354c6.201,6.354,13.92,14.261,28.792,14.261c14.873,0,22.591-7.908,28.793-14.261
			c5.519-5.654,9.506-9.739,18.059-9.739c8.554,0,12.541,4.085,18.06,9.739c6.202,6.354,13.921,14.261,28.794,14.261
			c14.873,0,22.592-7.908,28.794-14.261c5.519-5.654,9.506-9.739,18.059-9.739c8.556,0,12.543,4.085,18.063,9.739
			c6.202,6.354,13.921,14.261,28.795,14.261s22.593-7.908,28.795-14.261c3.605-3.692,6.564-6.709,10.564-8.359V322.448z"/>
		<path style="fill:#FFBBD2;" d="M123.648,337.448c13.16,7.851,36.345,14.826,67.092,17.037c0.026,0,0.052-0.004,0.078-0.004
			c4.143,0,7.5,3.357,7.5,7.5v22.254c0,2.355-1.106,4.574-2.989,5.992l-22.125,16.658h75.478l-22.126-16.658
			c-1.883-1.416-2.989-3.637-2.989-5.992v-22.254c0-4.143,3.358-7.5,7.5-7.5c0.026,0,0.053,0.004,0.079,0.004
			c30.749-2.211,53.94-9.186,67.101-17.037H123.648z"/>
		<path style="fill:#FFBBD2;" d="M286.585,241.223c5.52,5.653,9.507,9.738,18.062,9.738c8.555,0,12.542-4.085,18.062-9.738
			c4.147-4.249,8.988-9.178,16.185-11.98h-68.46C277.61,232.054,282.442,236.979,286.585,241.223z"/>
		<path style="fill:#FFBBD2;" d="M99.173,241.223c5.519,5.653,9.505,9.738,18.058,9.738s12.54-4.085,18.059-9.738
			c4.143-4.244,8.975-9.169,16.15-11.98H82.978C90.178,232.046,95.025,236.973,99.173,241.223z"/>
		<path style="fill:#FFBBD2;" d="M202.739,249.282c2.288,1.068,4.902,1.679,8.197,1.679c8.554,0,12.541-4.085,18.059-9.738
			c4.143-4.244,8.975-9.169,16.15-11.98h-68.42c7.176,2.811,12.008,7.736,16.15,11.98c1.117,1.145,2.171,2.22,3.213,3.215
			c0.139,0.097,0.279,0.194,0.416,0.291C198.82,246.377,200.857,247.906,202.739,249.282z"/>
		<path style="fill:#FFBBD2;" d="M265.175,156.27c4.104,6.155,6.135,8.661,9.762,8.661c3.626,0,5.657-2.506,9.76-8.66
			c2.852-4.278,6.419-9.579,11.97-12.691H253.24C258.772,146.699,262.326,151.998,265.175,156.27z"/>
		<path style="fill:#FFBBD2;" d="M176.091,156.605c-1.604,0.83-3.061,2.466-4.922,5.082c1.407-1.429,2.795-2.882,4.191-4.339
			C175.603,157.096,175.846,156.849,176.091,156.605z"/>
		<path style="fill:#FFBBD2;" d="M137.187,156.27c4.103,6.154,6.134,8.66,9.758,8.66c3.624,0,5.655-2.506,9.758-8.66
			c2.848-4.271,6.402-9.57,11.934-12.691h-43.39C130.784,146.696,134.338,151.998,137.187,156.27z"/>
		<path style="fill:#FFBBD2;" d="M234.005,163.358c1.307-1.82,2.611-3.613,4.006-5.179
			C236.812,159.373,235.557,161.071,234.005,163.358z"/>
		<path style="fill:#FFBBD2;" d="M201.179,156.27c4.103,6.154,6.134,8.66,9.76,8.66c3.624,0,5.655-2.506,9.758-8.66
			c2.848-4.271,6.402-9.57,11.935-12.691h-43.387C194.777,146.699,198.331,151.998,201.179,156.27z"/>
		<rect x="169.159" y="78.394" style="fill:#FFBBD2;" width="83.566" height="10.918"/>
	</g>
</g>
<g>
</g>
<g>
</g>
<g>
</g>
<g>
</g>
<g>
</g>
<g>
</g>
<g>
</g>
<g>
</g>
<g>
</g>
<g>
</g>
<g>
</g>
<g>
</g>
<g>
</g>
<g>
</g>
<g>
</g>
</svg>
