<?xml version="1.0" encoding="iso-8859-1"?>
<!-- Generator: Adobe Illustrator 18.0.0, SVG Export Plug-In . SVG Version: 6.00 Build 0)  -->
<!DOCTYPE svg PUBLIC "-//W3C//DTD SVG 1.1//EN" "http://www.w3.org/Graphics/SVG/1.1/DTD/svg11.dtd">
<svg version="1.1" id="Capa_1" xmlns="http://www.w3.org/2000/svg" xmlns:xlink="http://www.w3.org/1999/xlink" x="0px" y="0px"
	 viewBox="0 0 348.83 348.83" style="enable-background:new 0 0 348.83 348.83;" xml:space="preserve">
<g>
	<g>
		<path style="fill:#FFBBD2;" d="M174.408,243.503c40.5-23.338,38.703-44.889,37.127-51.071
			c-2.055-8.056-8.875-13.902-16.217-13.902c-5.563,0-10.711,3.44-14.496,9.687c-1.359,2.242-3.791,3.613-6.414,3.613l0,0
			c-2.623-0.001-5.057-1.371-6.414-3.615c-3.838-6.336-8.846-9.685-14.486-9.685c-7.338,0-14.154,5.846-16.209,13.901
			C135.723,198.614,133.922,220.166,174.408,243.503z"/>
		<path style="fill:#FFBBD2;" d="M318.713,50.033h-8.965v27.115c0,13.901-11.309,25.21-25.209,25.21
			c-13.902,0-25.213-11.31-25.213-25.21V50.033h-59.699v27.115c0,13.901-11.309,25.21-25.211,25.21
			c-13.9,0-25.211-11.31-25.211-25.21V50.033H89.506v27.115c0,13.901-11.309,25.21-25.211,25.21
			c-13.902,0-25.213-11.31-25.213-25.21V50.033h-8.967C21.781,50.033,15,56.815,15,65.15v51.125h318.83V65.15
			C333.83,56.815,327.049,50.033,318.713,50.033z"/>
		<path style="fill:#3CBCC6;" d="M318.713,35.033h-8.965v-7.765c0-13.902-11.309-25.211-25.209-25.211
			c-13.902,0-25.213,11.309-25.213,25.211v7.765h-59.699v-7.765c0-13.902-11.309-25.211-25.211-25.211
			c-13.9,0-25.211,11.309-25.211,25.211v7.765H89.506v-7.765c0-13.902-11.309-25.211-25.211-25.211
			c-13.902,0-25.213,11.309-25.213,25.211v7.765h-8.967C13.51,35.033,0,48.544,0,65.15v251.505c0,16.607,13.51,30.117,30.115,30.117
			h288.598c16.608,0,30.117-13.511,30.117-30.117V65.15C348.83,48.544,335.32,35.033,318.713,35.033z M333.83,116.275H15V65.15
			c0-8.335,6.781-15.117,15.115-15.117h8.967v27.115c0,13.901,11.311,25.21,25.213,25.21c13.902,0,25.211-11.31,25.211-25.21V50.033
			h59.699v27.115c0,13.901,11.311,25.21,25.211,25.21c13.902,0,25.211-11.31,25.211-25.21V50.033h59.699v27.115
			c0,13.901,11.311,25.21,25.213,25.21c13.9,0,25.209-11.31,25.209-25.21V50.033h8.965c8.336,0,15.117,6.782,15.117,15.117V116.275z
			 M274.326,27.269c0-5.63,4.582-10.211,10.213-10.211c5.629,0,10.209,4.58,10.209,10.211v49.879c0,5.63-4.58,10.21-10.209,10.21
			c-5.631,0-10.213-4.581-10.213-10.21V27.269z M164.205,27.269c0-5.63,4.58-10.211,10.211-10.211
			c5.631,0,10.211,4.58,10.211,10.211v49.879c0,5.63-4.58,10.21-10.211,10.21c-5.631,0-10.211-4.581-10.211-10.21V27.269z
			 M54.082,27.269c0-5.63,4.582-10.211,10.213-10.211c5.631,0,10.211,4.58,10.211,10.211v49.879c0,5.63-4.58,10.21-10.211,10.21
			c-5.631,0-10.213-4.581-10.213-10.21V27.269z M333.83,316.655c0,8.336-6.781,15.117-15.117,15.117H30.115
			c-8.334,0-15.115-6.781-15.115-15.117v-185.38h318.83V316.655z"/>
		<path style="fill:#3CBCC6;" d="M44.541,183.322H94.42c4.143,0,7.5-3.358,7.5-7.5c0-4.142-3.357-7.5-7.5-7.5H44.541
			c-4.143,0-7.5,3.358-7.5,7.5C37.041,179.964,40.398,183.322,44.541,183.322z"/>
		<path style="fill:#3CBCC6;" d="M44.541,293.203H94.42c4.143,0,7.5-3.358,7.5-7.5c0-4.143-3.357-7.5-7.5-7.5H44.541
			c-4.143,0-7.5,3.357-7.5,7.5C37.041,289.846,40.398,293.203,44.541,293.203z"/>
		<path style="fill:#3CBCC6;" d="M44.541,238.262H94.42c4.143,0,7.5-3.357,7.5-7.5c0-4.143-3.357-7.5-7.5-7.5H44.541
			c-4.143,0-7.5,3.357-7.5,7.5C37.041,234.904,40.398,238.262,44.541,238.262z"/>
		<path style="fill:#3CBCC6;" d="M254.41,183.322h49.881c4.142,0,7.5-3.358,7.5-7.5c0-4.142-3.358-7.5-7.5-7.5H254.41
			c-4.143,0-7.5,3.358-7.5,7.5C246.91,179.964,250.268,183.322,254.41,183.322z"/>
		<path style="fill:#3CBCC6;" d="M254.41,293.203h49.881c4.142,0,7.5-3.358,7.5-7.5c0-4.143-3.358-7.5-7.5-7.5H254.41
			c-4.143,0-7.5,3.357-7.5,7.5C246.91,289.846,250.268,293.203,254.41,293.203z"/>
		<path style="fill:#3CBCC6;" d="M254.41,238.262h49.881c4.142,0,7.5-3.357,7.5-7.5c0-4.143-3.358-7.5-7.5-7.5H254.41
			c-4.143,0-7.5,3.357-7.5,7.5C246.91,234.904,250.268,238.262,254.41,238.262z"/>
		<path style="fill:#3CBCC6;" d="M199.355,278.203h-49.881c-4.142,0-7.5,3.357-7.5,7.5c0,4.142,3.358,7.5,7.5,7.5h49.881
			c4.143,0,7.5-3.358,7.5-7.5C206.855,281.561,203.498,278.203,199.355,278.203z"/>
		<path style="fill:#3CBCC6;" d="M170.816,258.685c1.119,0.61,2.355,0.916,3.592,0.916c1.236,0,2.473-0.306,3.592-0.915
			c19.283-10.517,33.172-22.404,41.281-35.331c9.178-14.63,8.758-26.906,6.789-34.629c-3.783-14.835-16.428-25.196-30.752-25.196
			c-7.73,0-15.006,3.128-20.908,8.813c-5.898-5.684-13.174-8.813-20.902-8.813c-14.318,0-26.961,10.36-30.742,25.194
			c-1.971,7.723-2.393,20,6.781,34.629C137.654,236.281,151.539,248.169,170.816,258.685z M137.299,192.431
			c2.055-8.055,8.871-13.901,16.209-13.901c5.641,0,10.648,3.349,14.486,9.685c1.357,2.244,3.791,3.614,6.414,3.615l0,0
			c2.623,0,5.055-1.371,6.414-3.613c3.785-6.247,8.934-9.687,14.496-9.687c7.342,0,14.162,5.847,16.217,13.902
			c1.576,6.183,3.373,27.733-37.127,51.071C133.922,220.166,135.723,198.614,137.299,192.431z"/>
	</g>
</g>
<g>
</g>
<g>
</g>
<g>
</g>
<g>
</g>
<g>
</g>
<g>
</g>
<g>
</g>
<g>
</g>
<g>
</g>
<g>
</g>
<g>
</g>
<g>
</g>
<g>
</g>
<g>
</g>
<g>
</g>
</svg>
