<?xml version="1.0" encoding="iso-8859-1"?>
<!-- Generator: Adobe Illustrator 18.0.0, SVG Export Plug-In . SVG Version: 6.00 Build 0)  -->
<!DOCTYPE svg PUBLIC "-//W3C//DTD SVG 1.1//EN" "http://www.w3.org/Graphics/SVG/1.1/DTD/svg11.dtd">
<svg version="1.1" id="Capa_1" xmlns="http://www.w3.org/2000/svg" xmlns:xlink="http://www.w3.org/1999/xlink" x="0px" y="0px"
	 viewBox="0 0 418.908 418.908" style="enable-background:new 0 0 418.908 418.908;" xml:space="preserve">
<g>
	<g>
		<path style="fill:#FFBBD2;" d="M245.504,28.434C243.519,20.649,236.937,15,229.852,15c-5.44,0-10.279,3.239-13.992,9.366
			c-1.359,2.243-3.791,3.613-6.414,3.613h-0.001c-2.623,0-5.056-1.371-6.414-3.615c-3.71-6.126-8.545-9.364-13.982-9.364
			c-7.08,0-13.66,5.649-15.645,13.433c-1.53,5.999-3.269,26.901,36.042,49.594C248.768,55.333,247.034,34.431,245.504,28.434z"/>
		<path style="fill:#3CBCC6;" d="M232.192,80.943c9.18-6.982,16.279-14.434,21.201-22.279c8.99-14.332,8.576-26.365,6.645-33.937
			C256.327,10.168,243.914,0,229.852,0c-7.537,0-14.635,3.026-20.404,8.53C203.679,3.026,196.585,0,189.048,0
			c-14.057,0-26.467,10.168-30.18,24.726c-1.931,7.571-2.346,19.605,6.641,33.937c4.92,7.847,12.019,15.299,21.196,22.282
			C118.751,91.872,66.672,150.918,66.672,221.906v173.438c0,13.214,14.066,23.565,32.021,23.565c17.955,0,32.02-10.351,32.02-23.565
			V240.13c32.476-9.048,52.382-28.212,64.267-45.658c6.578-9.656,11.216-19.432,14.475-28.144
			c3.259,8.712,7.896,18.487,14.475,28.144c11.886,17.447,31.789,36.613,64.268,45.659v155.213
			c0,13.214,14.065,23.565,32.021,23.565s32.02-10.351,32.02-23.565V221.906C352.236,150.914,300.153,91.866,232.192,80.943z
			 M173.404,28.433C175.388,20.649,181.968,15,189.048,15c5.438,0,10.273,3.238,13.982,9.364c1.358,2.244,3.791,3.615,6.414,3.615
			h0.001c2.623,0,5.055-1.37,6.414-3.613c3.713-6.127,8.552-9.366,13.992-9.366c7.085,0,13.667,5.649,15.652,13.434
			c1.529,5.997,3.264,26.899-36.059,49.593C170.135,55.334,171.874,34.432,173.404,28.433z M115.712,395.344
			c0,3.492-6.63,8.565-17.019,8.565c-10.39,0-17.021-5.072-17.021-8.565v-29.423h34.04V395.344z M115.712,350.921h-34.04v-44.147
			h34.04V350.921z M115.712,291.774h-34.04V245.26c2.695,0.11,5.337,0.165,7.927,0.165c9.394,0,18.074-0.723,26.113-2.02V291.774z
			 M182.583,186.026c-12.845,18.854-30.205,31.731-51.87,38.581v-2.701c0-40.395,30.578-73.765,69.8-78.22
			C198.408,153.436,193.506,169.99,182.583,186.026z M201.954,128.465c-48.196,3.833-86.241,44.276-86.241,93.441v6.357
			c-10.504,1.862-21.856,2.52-34.04,1.969v-8.326c0-67.94,53.3-123.658,120.281-127.556V128.465z M288.196,224.6
			c-21.48-6.79-38.731-19.505-51.545-38.098c-11.093-16.096-16.091-32.936-18.236-42.814c39.213,4.465,69.781,37.83,69.781,78.218
			V224.6z M337.236,395.344c0,3.492-6.63,8.565-17.02,8.565c-10.39,0-17.021-5.072-17.021-8.565v-29.423h34.04V395.344z
			 M337.236,350.921h-34.04v-44.147h34.04V350.921z M337.236,291.774h-34.04v-48.368c8.039,1.296,16.72,2.019,26.113,2.019
			c2.584,0,5.231-0.064,7.927-0.178V291.774z M337.236,230.235c-12.186,0.553-23.534-0.115-34.04-1.977v-6.352
			c0-49.165-38.046-89.608-86.242-93.441V94.351c66.981,3.897,120.282,59.615,120.282,127.556V230.235z"/>
	</g>
</g>
<g>
</g>
<g>
</g>
<g>
</g>
<g>
</g>
<g>
</g>
<g>
</g>
<g>
</g>
<g>
</g>
<g>
</g>
<g>
</g>
<g>
</g>
<g>
</g>
<g>
</g>
<g>
</g>
<g>
</g>
</svg>
