<?xml version="1.0" encoding="iso-8859-1"?>
<!-- Generator: Adobe Illustrator 18.0.0, SVG Export Plug-In . SVG Version: 6.00 Build 0)  -->
<!DOCTYPE svg PUBLIC "-//W3C//DTD SVG 1.1//EN" "http://www.w3.org/Graphics/SVG/1.1/DTD/svg11.dtd">
<svg version="1.1" id="Capa_1" xmlns="http://www.w3.org/2000/svg" xmlns:xlink="http://www.w3.org/1999/xlink" x="0px" y="0px"
	 viewBox="0 0 405.737 405.737" style="enable-background:new 0 0 405.737 405.737;" xml:space="preserve">
<g>
	<g>
		<path style="fill:#FFBBD2;" d="M294.224,70.864c-5.649-22.157-24.765-38.24-45.451-38.24c-15.879,0-30.271,9.32-40.527,26.243
			c-1.359,2.243-3.792,3.613-6.414,3.613h-0.001c-2.623,0-5.056-1.371-6.414-3.615c-10.248-16.922-24.633-26.241-40.505-26.241
			c-20.677,0-39.784,16.082-45.435,38.238c-4.015,15.744-9.027,71.056,92.354,127.696
			C303.244,141.913,298.238,86.606,294.224,70.864z M157.646,58.789c-7.522,1.316-14.45,6.427-18.531,13.669
			c-5.061,8.98-5.397,20.226-0.947,31.663c1.502,3.86-0.409,8.207-4.27,9.709c-0.894,0.348-1.814,0.513-2.718,0.513
			c-3.003,0-5.837-1.815-6.991-4.782c-6.111-15.705-5.452-31.497,1.857-44.467c6.358-11.282,16.934-18.966,29.014-21.08
			c4.083-0.711,7.967,2.016,8.681,6.095C164.455,54.189,161.726,58.075,157.646,58.789z"/>
		<path style="fill:#3CBCC6;" d="M155.06,44.014c-12.08,2.114-22.655,9.798-29.014,21.08c-7.31,12.97-7.969,28.762-1.857,44.467
			c1.154,2.967,3.988,4.782,6.991,4.782c0.904,0,1.824-0.165,2.718-0.513c3.86-1.502,5.771-5.849,4.27-9.709
			c-4.45-11.438-4.114-22.683,0.947-31.663c4.081-7.242,11.009-12.353,18.531-13.669c4.08-0.714,6.809-4.601,6.095-8.681
			C163.027,46.03,159.143,43.303,155.06,44.014z"/>
		<path style="fill:#3CBCC6;" d="M50.502,127.615c-8.153,1.427-15.276,6.587-19.543,14.157c-4.846,8.597-5.308,19.003-1.3,29.302
			c1.154,2.967,3.988,4.782,6.991,4.782c0.904,0,1.824-0.165,2.718-0.513c3.86-1.502,5.771-5.849,4.27-9.709
			c-2.347-6.031-2.208-11.89,0.389-16.497c2.021-3.585,5.408-6.107,9.062-6.747c4.08-0.714,6.809-4.601,6.095-8.681
			C58.468,129.63,54.586,126.907,50.502,127.615z"/>
		<path style="fill:#3CBCC6;" d="M374.779,141.773c-4.266-7.57-11.39-12.731-19.543-14.158c-4.078-0.712-7.966,2.014-8.681,6.095
			c-0.714,4.08,2.015,7.967,6.095,8.681c3.653,0.64,7.041,3.162,9.061,6.747c2.597,4.607,2.733,10.466,0.387,16.497
			c-1.502,3.859,0.409,8.207,4.27,9.709c0.894,0.348,1.813,0.513,2.718,0.513c3.002,0,5.837-1.815,6.991-4.781
			C380.085,160.776,379.624,150.37,374.779,141.773z"/>
		<path style="fill:#3CBCC6;" d="M405.079,145.806c-3.473-22.759-19.983-40.874-41.086-45.076
			c-17.153-3.414-33.74,3.007-45.975,17.354c-3.12-3.678-6.531-6.834-10.208-9.453c4.781-17.05,3.553-31.262,0.949-41.474
			c-7.437-29.165-32.104-49.534-59.986-49.534c-18.058,0-34.411,8.522-46.939,24.235c-12.521-15.714-28.868-24.235-46.922-24.235
			c-27.872,0-52.532,20.368-59.97,49.532c-2.668,10.462-3.884,25.126,1.315,42.733c-3.044,2.354-5.898,5.084-8.539,8.196
			c-12.234-14.351-28.827-20.773-45.975-17.355c-21.102,4.202-37.613,22.316-41.086,45.076
			c-2.705,17.736-0.451,62.731,74.806,106.892l-12.676,12.676c-2.929,2.93-2.929,7.678,0,10.607
			c1.465,1.464,3.385,2.196,5.304,2.196c1.919,0,3.839-0.732,5.304-2.196l6.582-6.582c0.348,29.311,4.884,88.813,34.415,116.671
			c1.449,1.366,3.299,2.044,5.146,2.044c1.992,0,3.981-0.79,5.457-2.354c2.842-3.013,2.703-7.76-0.31-10.603
			c-25.368-23.931-29.322-79.145-29.663-106.244l7.065,7.066c2.929,2.929,7.678,2.93,10.606,0.001
			c2.93-2.929,2.93-7.678,0.001-10.606l-12.689-12.689c30.454-17.917,52.548-38.292,64.681-59.631
			c7.684,5.371,15.953,10.618,24.8,15.733l-12.268,12.269c-2.929,2.929-2.929,7.678,0.001,10.606
			c2.928,2.928,7.677,2.929,10.606-0.001l6.845-6.845v155.797c0,4.143,3.357,7.5,7.5,7.5c4.142,0,7.5-3.357,7.5-7.5V224.817
			l6.845,6.845c1.465,1.465,3.384,2.197,5.304,2.197c1.919,0,3.839-0.732,5.303-2.196c2.93-2.929,2.93-7.678,0.001-10.606
			l-12.517-12.518c9.26-5.368,17.887-10.88,25.865-16.528c12.001,21.716,34.311,42.465,65.261,60.675l-12.688,12.689
			c-2.929,2.929-2.929,7.678,0.001,10.606c2.928,2.929,7.677,2.928,10.606-0.001l7.063-7.063
			c-0.341,27.1-4.296,82.311-29.661,106.242c-3.013,2.842-3.151,7.589-0.309,10.602c1.476,1.565,3.464,2.354,5.456,2.354
			c1.847,0,3.696-0.678,5.146-2.045c29.529-27.857,34.065-87.359,34.413-116.671l6.581,6.582c1.465,1.465,3.384,2.197,5.304,2.197
			c1.919,0,3.839-0.732,5.303-2.196c2.93-2.929,2.93-7.678,0.001-10.606l-12.675-12.677
			C405.53,208.537,407.785,163.542,405.079,145.806z M109.477,70.862c5.65-22.156,24.758-38.238,45.435-38.238
			c15.872,0,30.257,9.319,40.505,26.241c1.358,2.244,3.791,3.615,6.414,3.615h0.001c2.622,0,5.055-1.37,6.414-3.613
			c10.256-16.923,24.648-26.243,40.527-26.243c20.687,0,39.802,16.083,45.451,38.24c4.014,15.742,9.02,71.05-92.393,127.694
			C100.45,141.917,105.462,86.606,109.477,70.862z M87.73,242.452c-27.56-15.505-47.725-32.475-59.97-50.474
			c-10.139-14.903-14.383-30.087-12.273-43.91c2.523-16.542,14.253-29.654,29.186-32.628c14.133-2.811,27.487,4.241,36.642,19.357
			c1.358,2.244,3.791,3.615,6.414,3.615c0,0,0,0,0.001,0c2.622,0,5.055-1.37,6.414-3.613c2.356-3.888,4.983-7.219,7.837-10.013
			c1.968,4.162,4.293,8.443,7.05,12.84c10.181,16.237,24.739,31.765,43.494,46.441C141.414,204.698,119.197,224.737,87.73,242.452z
			 M318.006,242.452c-32.049-18.044-54.511-38.497-65.408-59.527c18.062-14.339,32.139-29.481,42.061-45.297
			c3.055-4.869,5.586-9.601,7.68-14.181c3.411,3.04,6.513,6.828,9.254,11.353c1.358,2.243,3.792,3.613,6.415,3.613
			c2.623,0,5.056-1.371,6.414-3.615c9.155-15.115,22.509-22.169,36.643-19.357c14.934,2.974,26.662,16.086,29.186,32.628
			c2.108,13.823-2.136,29.007-12.274,43.91C365.731,209.978,345.566,226.948,318.006,242.452z"/>
	</g>
</g>
<g>
</g>
<g>
</g>
<g>
</g>
<g>
</g>
<g>
</g>
<g>
</g>
<g>
</g>
<g>
</g>
<g>
</g>
<g>
</g>
<g>
</g>
<g>
</g>
<g>
</g>
<g>
</g>
<g>
</g>
</svg>
