<svg id="Layer_1" data-name="Layer 1" xmlns="http://www.w3.org/2000/svg" viewBox="0 0 775.52 385.21"><defs><style>.cls-1{fill:#ed1c24;}</style></defs><title>logo</title><path class="cls-1" d="M44.63,280.33C49.78,267.13,55,254,61.74,241.53,68,230,75.49,224.85,88.24,222.15L77.1,219.08C76,232,59.34,242.92,53.55,254.23c-7.69,15-13.13,31.85-13.05,48.83,0,6.56,17.21-.08,19.2-2.73,8.49-11.34,15.43-23.64,23-35.61C88.12,256,98,238,108.58,235.34L97.4,233.55c1.27,8.66-7.18,16.38-11.67,23a249.07,249.07,0,0,0-16.92,28.08c-7.48,14.89-17.28,41.86-12.09,58.91,2,6.45,16.71.73,19.2-2.73C88.07,323.88,93.6,302,102.7,283.4s22.68-42.32,43.13-49.69l-13.78-.92c0.62,9.08-10.2,18.53-15.35,25.24a172.92,172.92,0,0,0-18,28.3c-5.3,10.71-8,21.27-10.53,32.85-1.84,8.27-4,17-.52,25.1,2.57,6,14.5,1.07,17.88-1.41,12.09-8.85,16.81-25.35,23.22-38.26C139,284,149.07,264,165,247c8.7-9.23-2.77-4.75-3.57-2-1.37,4.7-5.36,8.9-8.22,12.71-7.6,10.15-16,19.62-23.15,30.11-9.08,13.31-17.14,31.41-13.47,47.72,1.42,6.31,15.21.56,17.88-1.41,11.43-8.43,20.26-22.74,29.19-33.71,9.82-12.07,14.2-28.21,26.55-38.23,8.67-7-11.31-6.18-15.8-2.53-10.5,8.52-16.34,20.33-23,31.8-4.22,7.22-9.72,13.5-15,19.91-5.45,6.58-10.77,15.14-17.66,20.22l17.88-1.41c-5.8-25.84,17.56-50.56,32.19-68.86,7.56-9.46,23.87-31.25,0-28.39-20.35,2.44-36,29.64-45,45.28-6.18,10.72-11.41,22-16.92,33.07-4.8,9.67-8.13,22.36-17.17,29l17.88-1.41c-3.56-8.29-.78-17.05,1.09-25.46,3-13.32,6.81-24.66,13.64-36.61,5.77-10.1,13-19.36,20.27-28.42,5.12-6.39,10-12.48,9.44-21-0.33-4.84-11.76-1.65-13.78-.92-20.86,7.52-35,24.67-46.29,43-6.87,11.17-12.39,23.12-17.64,35.11s-9.06,25.42-16.82,36.23l19.2-2.73c-2.33-7.67,0-15.91,1.47-23.58a133.83,133.83,0,0,1,14-39.34c5.05-9.28,11.3-18,17.54-26.48,4.47-6.1,8.86-12.77,7.71-20.58-0.58-4-9-2.33-11.17-1.79-32.9,8.31-46.63,49.6-64.93,74l19.2-2.73c-0.07-16.42,6-35,14.73-48.87,6.5-10.33,20.71-19.72,21.8-32.55,0.45-5.33-8.19-3.69-11.14-3.07C72.08,216.14,60,221.14,50.11,231.3c-12.66,13-19,35.39-25.36,51.81-2.26,5.78,17.48,3.37,19.88-2.78h0Z" transform="translate(-24.57 -24.62)"/><path d="M504.74,163.36c0.78-1.64,1.61-3.25,2.34-4.92,3.68-8.41,8-16.41,14.52-23,4.43-4.51,8.06-4.22,12,.73,4.17,5.24,4.1,5.15,9.67,1.54a46.15,46.15,0,0,1,8.37-4.33c3.3-1.28,5.42-.32,6.82,2.91a39.69,39.69,0,0,1,1.85,6.76c0.72,3.08,2,3.55,4.52,1.78a21.57,21.57,0,0,1,4.45-2.52c4.29-1.67,8.15-.16,10.31,3.91,2.72,5.13,2.43,10.66,2,16.17-0.25,3.33-.8,6.64-1.12,10-0.24,2.48.85,3.36,3,2.23,5.72-3,11.15-1.46,16.35,1.12,4.84,2.4,6,1.92,7.4-3.43q4.14-15.56,8.68-31a17.84,17.84,0,0,1,2.91-5.45c1.45-1.95,3.52-2.86,6-1.77a4.8,4.8,0,0,1,2.82,5.83,111.62,111.62,0,0,1-3.21,12.32c-1.92,5.74-4.5,11.26-6.23,17a51.57,51.57,0,0,0-2.57,14,257,257,0,0,0,1.11,29.74c1.34,12.48,6.72,23.58,14.37,33.47a52.59,52.59,0,0,0,19,15.81c8.64,4.12,17.57,3.53,26.56,2a50.66,50.66,0,0,0,27.22-13.67,52,52,0,0,0,13.81-23c3.32-11.18,3.71-22.47,0-33.63-4.76-14.47-14.41-24.27-29.42-27.52-11.89-2.58-22.8.38-31.66,9.18a18.38,18.38,0,0,0-3.58,5.05c-4,8.5,1.14,16.22,10.56,16.87,8.84,0.61,15.44-2.53,20.45-9.64a10.48,10.48,0,0,1,3.43-3.4c1.26-.64,3.3-1,4.39-0.35,0.95,0.53,1.36,2.54,1.45,3.93a5.94,5.94,0,0,1-1.16,3.26c-4.76,7.34-10.53,13.78-19,16.75-15.37,5.4-27.43-4-28.49-18-1.07-14.12,9.49-26.81,21.71-31.12,12.42-4.38,24.57-2.64,36.06,2.84,17.62,8.42,26.91,23,29.72,42.15,1.67,11.42.61,22.45-4.06,32.88-9.19,20.55-25,33.06-47.09,37.79-11.28,2.42-22.3,2-32.89-2.84-10.76-5-19.25-12.67-26-22.32-6.38-9.08-10.21-19.26-13-29.9a21.22,21.22,0,0,0-2.09-4.11c-1,1.18-2,2.33-2.91,3.54-2.44,3.22-4.62,6.68-7.31,9.68-5.88,6.54-18,6.49-23.25,2.59-4-2.93-6-7-6.93-11.56-1.43-6.85-.49-13.64.73-20.43,2-10.84,3.93-21.69,5.55-32.58,0.59-4,.27-8.12.19-12.18,0-2.15-1.13-4.24-3.31-4.31-1.27,0-2.94,1.46-3.85,2.7-3.15,4.3-2.91,9.53-3.62,14.52q-3,21-6.16,42a115.56,115.56,0,0,1-2.69,13,13.19,13.19,0,0,1-3.18,5.43c-0.74.77-2.77,0.9-3.91,0.48-0.77-.29-1.49-2.08-1.39-3.12,0.39-3.86,1.18-7.67,1.73-11.52,1.75-12.24,3.94-24.45,5-36.75,0.6-6.84-.59-13.85-1.15-20.77a25.16,25.16,0,0,0-1.42-6.57c-0.8-2.19-2.43-2.57-4-.84a14.09,14.09,0,0,0-3.46,5.87c-0.68,3.22-.53,6.63-0.59,10-0.09,5.13.32,10.3-.16,15.38-1.57,16.68-5.59,32.74-13.05,47.83a3.72,3.72,0,0,1-.83,1.38c-1.09.81-2.38,2.17-3.41,2s-2.33-1.77-2.55-2.93c-0.81-4.33-1.83-8.76-1.67-13.11A287.86,287.86,0,0,1,521.76,185c1.3-9.17,3.84-18.18,6-27.22a8.89,8.89,0,0,0-1.19-7.24c-1.56-2.44-3.37-2.57-4.66.06-2.5,5.09-5.13,10.2-6.84,15.58-5.37,17-6.92,34.67-9.69,52.15-0.44,2.76-1.17,5.47-1.88,8.18a6.2,6.2,0,0,1-1.26,2.37c-1.65,1.93-3.42,4.1-6.29,3.47-3.08-.68-3.75-3.47-4-6.13-0.82-8.9-1.48-17.81-2.3-26.7a10.72,10.72,0,0,0-1.25-3,10.21,10.21,0,0,0-2.25,2.08,102.8,102.8,0,0,1-18.49,24.28,30.1,30.1,0,0,1-7,5.1c-8.27,4.15-15.23,1.36-16.61-8.32-1-7.21,0-14.26,1.43-21.24A147.14,147.14,0,0,1,458.22,162c0.73-1.44,2.09-3.15-.11-4.45-1.41-.83-3.23.63-4.08,3a205.5,205.5,0,0,1-29.27,55.06A44.79,44.79,0,0,1,404,230.69c-8.12,3-17.89-.24-22.89-7.36-2.64-3.76-3.05-3.82-7.32-1.85-4.79,2.21-9.72,3.17-15,1.87-5.51-1.35-9.23-4.7-11.75-9.6a3.42,3.42,0,0,0-.24-0.49c-0.93-1.26-1.87-2.51-2.81-3.76a40.29,40.29,0,0,0-3.34,3.23c-4.94,6-9.67,12.16-14.77,18-3.76,4.3-6.92,3.55-8.57-1.83-3.7-12.1-6.88-24.34-8.39-36.94a4,4,0,0,0-.25-1.33c-0.38-.75-0.8-1.92-1.37-2a3,3,0,0,0-2.18,1.2c-2.22,2.61-4.29,5.36-6.48,8-7.73,9.29-17,17-26.32,24.53-8.15,6.63-16.88,12.44-26.74,16.33a77.39,77.39,0,0,1-23.22,4.93,64.86,64.86,0,0,1-24.3-2.77c-2.72-.85-3.87.36-3.32,3.93,1.17,7.63.21,15.18-1,22.64-2.35,14.84-8.67,28-17.68,40-14,18.64-31.93,32.27-53.25,41.53-4.39,1.91-8.87,3.59-13.32,5.35-3.85,1.53-4.49,2.72-3.11,6.62,2.2,6.22,4.63,12.31,8.6,17.73A34.14,34.14,0,0,0,129.24,390c14.49,6.23,28.67,5.09,42-3.27,14.14-8.88,25.14-21.13,34.78-34.55,7.33-10.2,14-20.87,21.12-31.21,3.8-5.5,8-10.72,13.63-14.56,5.18-3.52,10.7-4,16.56-2.29,3.2,0.95,4.41,0,3.47-3.27-1.31-4.5-2.78-9-4.44-13.36-1.21-3.2-2.66-3.66-6-2.73a59,59,0,0,1-33.65-.49,18.76,18.76,0,0,1-3.74-1.57c-5-2.83-8.76-6.6-8-12.93a16.18,16.18,0,0,1,10.34-13.83c9-3.73,18-1.8,26.8.87a33.81,33.81,0,0,1,15.6,9.42c2,2.15,3.84,1.52,6,.14,9.59-6.13,19.11-12.38,28.93-18.12A92.59,92.59,0,0,1,320.94,237c14.24-2.9,27,8.67,24.88,23-1,6.77-7.41,13.92-14.1,15.25a12.12,12.12,0,0,1-5.52-.61c-5.76-1.71-9.27-13.71-3.5-18,3-2.28,5.27-1.88,6.68,1.74,0.42,1.08.73,2.43,1.55,3.07s2.66,1.34,3.48.92a3.65,3.65,0,0,0,1.43-3.29,17.62,17.62,0,0,0-3.42-5.36c-3.77-4.19-8.57-5.41-14-4.42-9.5,1.72-18,5.81-26.2,10.72-7.89,4.75-15.62,9.79-23.37,14.77-3.16,2-3.61,3.24-2.31,6.56,7.18,18.41,7.82,37.32,4.32,56.52A84.06,84.06,0,0,1,252.66,377c-4.52,5.45-11.34,9-19.08,5.66-6-2.62-9.52-7.67-10.6-13.85-1-5.82-.88-11.84-1.33-17.77a14.13,14.13,0,0,0-.86-2.9,10.54,10.54,0,0,0-2.47,1.83c-5.42,7.34-10.54,14.91-16.16,22.09-9.28,11.86-19.73,22.47-32.53,30.75-17.11,11.08-39.7,8.58-54.4-3.6-11.36-9.41-18.32-21.76-21.89-36a12,12,0,0,0-6.82-8.58c-12-6.15-21.77-15.1-30.4-25.35C45.49,316.63,36.9,302.78,32,286.91c-3.9-12.72-5.26-25.71-1.51-38.71,4.62-16,15.66-25.79,31.32-30.6,11-3.38,22.09-3.58,33,.2,6.82,2.36,12.68,6.12,16.15,12.83a18.46,18.46,0,0,1,1.1,15c-0.62,1.78-3,3.33-4.87,4.18s-3.69-.66-3.66-2.75c0.06-4.56-1.06-8.51-4.32-11.84-4-4.13-9.15-6-14.59-7.26-11.79-2.64-22.08.58-31.36,8-8.76,7-12.42,16.23-12.77,27.22-0.43,13.46,3.81,25.68,9.93,37.27a133.84,133.84,0,0,0,12.35,19.37,108.11,108.11,0,0,0,23.06,22.39,12.62,12.62,0,0,0,2.35,1.33c1.61,0.68,2.67,0,3-1.61a21.15,21.15,0,0,0,.24-3c1-12.86,1.24-25.82,3.06-38.56a144.42,144.42,0,0,1,15.14-45.85,107,107,0,0,1,18.88-25.56,59.09,59.09,0,0,1,34.48-17.86c3.39-.51,4-1.65,2.6-4.8-7-15.89-5.38-31.55,1.38-47a68.85,68.85,0,0,1,13.48-20.52c12.08-12.49,26.6-18.58,44.22-16.42,9.39,1.16,18.18,3.74,26,9.25,18.2,12.82,14.36,36.16,1,46.88a19.43,19.43,0,0,1-23.89.28c-1.89-1.47-3.09-3.3-2.6-5.85,0.56-2.88,1.76-5.58,4.6-6.55,1.32-.45,3.23.47,4.76,1.06,2.08,0.8,4,2.38,6.09,2.75,8,1.39,13.74-4.87,12.23-13.09a21.64,21.64,0,0,0-11.16-15.29c-12.86-7.27-26.55-9.8-40.92-5-8.88,2.95-14.8,9.47-19.25,17.41-9.22,16.45-8.47,39.77,3.86,54.69,12.68,15.34,29,21.93,48.87,18.54,15.47-2.64,28.68-10.11,40.78-19.73A135.23,135.23,0,0,0,305.05,175a12.09,12.09,0,0,0,2-7.34c-0.4-14.54-1.12-29.11-.5-43.62,0.86-19.81,3.89-39.36,11.27-58,5.07-12.8,11.68-24.65,21-34.83a40.91,40.91,0,0,1,6.09-5.68c2.42-1.74,4.35-1,5.09,2a69.54,69.54,0,0,1,1.77,10.13,146.33,146.33,0,0,1-5.44,55.76c-4,13.79-7.72,27.69-12.53,41.21-3.92,11-9.1,21.63-14.08,32.24a19.53,19.53,0,0,0-2.05,10.63,184.36,184.36,0,0,0,6.68,35.07,13.38,13.38,0,0,0,1.93,3.07c1-.76,2.34-1.33,3-2.32,4.13-5.93,8.44-11.78,12-18a24.75,24.75,0,0,0,2.75-10.31c1.07-15.49,4.18-30.62,8-45.58,5.43-21.12,12.44-41.72,22.1-61.34,1.47-3,3.23-5.85,4.84-8.78,1-1.76,2.2-3.29,4.42-2.91s2.83,2.51,3,4.37c0.37,5.4,1,10.86.6,16.21a242.64,242.64,0,0,1-3.57,27.35c-3.42,17.16-9.38,33.57-16.42,49.56-3.78,8.6-7.89,17.06-12.18,25.42-2.86,5.58.16,19.09,7,21.91,3.84,1.58,11.74-.09,14.11-3.51a5.43,5.43,0,0,0,.83-3,121.49,121.49,0,0,1,6.66-41.54c4.08-12.14,9.5-23.67,18.68-33,5.45-5.51,11.53-4.66,15.28,2.18,5.39,9.84,6.81,20.35,5.44,31.47-1.93,15.65-8.4,28.87-20.13,39.39a100.7,100.7,0,0,1-10.24,7.53c-3.5,2.41-3.78,4.19-1.14,7.51,3.73,4.69,7.87,5.53,14.06,2.82,7.11-3.11,12.43-8.55,17.26-14.52,11.52-14.26,18.69-30.59,23.18-48.22,0.55-2.18-.41-3.48-2.19-4.39-7.9-4-11.43-11-12.83-19.29a13.77,13.77,0,0,1,3.5-11.55,8.57,8.57,0,0,1,11.14-1.31,26,26,0,0,1,11.47,17.09c1.34,6.31,6.54,8.54,12.22,5,1.58-1,2.76-2.64,4.34-3.64a51.29,51.29,0,0,1,7.75-4.15c2.1-.86,4.74-0.64,5.85,1.42a8.61,8.61,0,0,1,.44,5.89,14.9,14.9,0,0,1-6.78,8.52,36,36,0,0,1-5.81,2.88,11.82,11.82,0,0,0-6.32,5.64c-7,13.1-12.11,26.85-14.42,41.54a43.57,43.57,0,0,0-.34,11c0.47,4.66,3.39,5.69,7.24,2.91,6.64-4.82,11.35-11.33,15.66-18.16,7.53-11.92,11.74-25.13,15.06-38.71a124.49,124.49,0,0,1,4.93-14.62,8.38,8.38,0,0,1,3-3.38,4.32,4.32,0,0,1,5.54-.12c1.68,1.34,1.73,3.15,1.29,5.17-1,4.76-1.93,9.55-2.79,14.34a12,12,0,0,0,.15,2.8ZM101.16,324.21c0.32,4,.75,10,1.31,16.06,0.28,3,1.89,3.88,4.7,2.74C130,333.72,149.6,320,165,300.52c11.13-14,17.47-29.64,16.54-47.78-0.43-8.34-2-16.24-7.91-22.81-4.74-5.31-10.06-7.61-17.3-6.23-8.77,1.67-15.7,6.37-22,12.12-10.42,9.49-17.33,21.36-22.55,34.36C105.07,286.88,101.57,304.19,101.16,324.21Zm129.75,27.56c0.77,4,1.15,8.21,2.42,12.09s4.08,6.89,8.51,7.43c4,0.49,6.36-2.17,8.33-5,7.91-11.53,11.72-24.5,12.68-38.31,0.5-7.18.22-7.2-6.79-8.59-8.84-1.76-15.57,1.49-19.76,9.51C232.57,336,231.6,343.75,230.91,351.77Zm183.51-195c-0.64-3.35-1.52-8.5-2.67-13.59a4.56,4.56,0,0,0-2.28-2.94c-0.61-.24-2.16,1-2.82,2-2.29,3.24-4.55,6.53-6.5,10C392.36,166,388.72,181,387.7,196.72c-0.22,3.42,1.08,4.1,4.06,2.45a10.35,10.35,0,0,0,1.15-.72C406.3,188.56,413.69,175.44,414.42,156.8Zm-95.94-10.41,1,0.31a25.29,25.29,0,0,0,2-3.62c2.6-7,5.43-14,7.56-21.15,3.74-12.62,7.2-25.34,10.46-38.1a102.82,102.82,0,0,0,3-32.22,7.72,7.72,0,0,0-1.18-2.49c-0.63.57-1.29,1.11-1.86,1.73a4.22,4.22,0,0,0-.61,1.2,181.6,181.6,0,0,0-11.81,37.08c-3.19,16.47-5.82,33-8.54,49.59C318.13,141.22,318.48,143.83,318.48,146.39ZM585.29,222.1a26.37,26.37,0,0,0,4-1.34c8.51-4.4,11.35-12.41,12.94-21,0.5-2.69-1.11-3.6-3.88-3-5.72,1.26-11.43,1.54-17-.85-1.88-.81-3-0.23-3.38,1.68a46.25,46.25,0,0,0-.86,5.88c-0.28,4.38-1.09,8.78.63,13.09A8.37,8.37,0,0,0,585.29,222.1ZM375.64,97.51c-4.88,5.1-20.16,59.47-18.13,64.15C362.57,158.18,379.07,104.87,375.64,97.51ZM240,274.69c5.52-.64,1.65-3.75.44-4.3a49.28,49.28,0,0,0-18.61-4.07c-1.8-.08-4.43-0.49-4.62,1.91-0.08,1.06,2.24,3,3.78,3.39A151.31,151.31,0,0,0,240,274.69ZM590.2,184.54c-0.95,1.53-.63,2.45,0,3s2.79,0.6,3.81-.07,0.45-2.11-.09-2.73S591.15,183,590.2,184.54Z" transform="translate(-24.57 -24.62)"/><path d="M571.8,283.81c-16.79-.83-32.54-4.46-47-12.93-0.7-.41-1.39-0.84-2.05-1.31-5-3.55-4.63-8.43,1-11a9.32,9.32,0,0,1,9.52.7c13.56,8.83,28.67,12.5,44.65,12.84a41.54,41.54,0,0,0,10.36-1.57c4.21-1,7.35-.42,8.4,2.08,1,2.27-.37,5.3-4.14,7A54,54,0,0,1,581,283,74.75,74.75,0,0,1,571.8,283.81Z" transform="translate(-24.57 -24.62)"/><path d="M540,130.72c-8.72-.17-16.94-2.05-24.25-7.14a5.94,5.94,0,0,1-2.8-6.26c0.69-4.17,4.23-5.89,8-4.07,4.11,2,8.17,4.27,12.51,5.54,9.09,2.65,17.66.8,25.55-4.36l1.35-.9c1.64-1.09,3.44-2.05,5.23-.64a4.14,4.14,0,0,1,.83,5.67,24.49,24.49,0,0,1-5.87,6.51C554.51,129.42,547.39,130.59,540,130.72Z" transform="translate(-24.57 -24.62)"/><path d="M799.79,342c-1.46-15.25-7.92-27.69-21.85-35.3-4.07-2.23-8.49-3.84-13.23-3.33a29.3,29.3,0,0,0-25.83,23.85c-0.77,4.07-1,8.3,1,12.2a4.8,4.8,0,0,0,6.12,2c2.25-1,2-2.77,1.43-4.59-2.19-7.52.41-13.53,6.1-18.34,5.87-5,12.62-6,19.47-2.56a33.87,33.87,0,0,1,17.35,20.53,45.36,45.36,0,0,1,1.82,17.13c-0.77,12.77-5.76,23.4-17.31,29.76-14,7.71-31.62,5.9-40.46-9.48-3.29-5.71-5-12-6.12-18.42-2.43-13.78-.85-27.38,1.93-40.89,1.07-5.21,2.87-10.26,4.18-15.43,0.79-3.11-1.86-7.06-5.09-7.94-2.38-.66-3.89.36-5.25,4.2-1.51,4.25-2.67,8.62-4,12.93a34.21,34.21,0,0,1-1.35,3.16l-0.88-.2c-0.14-.84-0.29-1.67-0.41-2.51-0.57-4.2-.78-8.49-1.77-12.59-2.43-10-8.88-14.41-19-12.94-6,.87-10.89,4.29-14.79,8.89-6.39,7.55-9.51,16.59-11,26.17-1.16,7.7-1.39,15.47.83,23.11,2.55,8.81,9.56,15.17,18.48,14.47,2.75-.22,3.61,1.43,2.15,3.82a52.22,52.22,0,0,1-4.44,6.15c-5.07,6.1-10.92,11.17-19.09,12.4-1.57.24-3.32-.72-5-1.12a18.8,18.8,0,0,1,1.82-3.89c4.25-5.44,7-11.44,6.81-18.44-0.14-6.45-4.69-10.68-10.63-9.71A12.81,12.81,0,0,0,655.6,348c-5.38,4.87-7.69,11.19-7.6,18.43,0.05,4.07-1.26,5.42-5.13,4.91-9.42-1.24-17.13-5.37-22.34-13.62-4.48-7.08-6-15-7.05-23.13-1.28-9.74-1.09-19.32,2.83-28.49,2.61-6.1,5.75-11.94,11.24-16,4.36-3.23,8-2.44,10.47,2.38a76.13,76.13,0,0,1,4,10c0.93,2.73,1.41,5.61,2.33,8.34,0.68,2,2.18,3.1,4.46,2.29,3.56-1.27,7.11-7,6.43-10.68a38.7,38.7,0,0,0-8.66-18.42c-4.25-5-9.52-6.3-15.88-4.39-9,2.71-15.58,8.58-20.86,16-4,5.67-7.72,11.57-11.6,17.35a27,27,0,0,1-2.17,2.52l-0.95-.31c-0.24-1.57-.41-3.15-0.74-4.69-1.29-6-2.33-12-4.07-17.88-1.36-4.56-3.65-5.37-7.9-3.23a69.74,69.74,0,0,0-8.78,5.78c-2.47,1.76-3.35,1.7-5.08-.72-1-1.4-2-2.83-3.06-4.14-3.33-4-6.53-4-10-.13a71.43,71.43,0,0,0-14.21,24.13c-0.9,2.58-2,5.09-3,7.64l-1-.21c0.16-3.09.12-6.2,0.52-9.26,0.62-4.65,1.65-9.24,2.28-13.89,0.3-2.22-.45-4.23-3.1-4.6-4.92-.69-10.43,4.73-10.29,9.73a70.48,70.48,0,0,1-.45,11c-1.46,11.19-6.49,21-12.44,30.35a14.77,14.77,0,0,1-2.34,2.33l-0.81-.31a15.26,15.26,0,0,1,0-2.69c0.36-2,1-3.86,1.26-5.82,0.95-8.16,2-16.32,2.57-24.51,0.37-5.11.5-10.28-1.36-15.28-2.47-6.63-7.57-8.62-13.81-5.23a21.23,21.23,0,0,0-9,9.87c-3.44,7.25-6.43,14.71-9.69,22a9,9,0,0,1-2.32,3.55c-2.86,2.19-5.93,4.12-9,6.06-0.62.39-8.77,4.31-8.57,3.55,1.09-4.1,5.08-23.53,6.07-27.66,2.53-10.51,3.39-16.46.73-20.74s-4.13-3.74-6.38-.65a29.71,29.71,0,0,0-3.41,6.44c-5.86,14.62-7.27,30.12-8.83,45.58-0.71,7.06-.18,14.34-3.55,20.93a4.6,4.6,0,0,1-2.31,2.34c-0.58.16-1.78-1-2.34-1.84-4.88-7.27-6.9-15.13-5.31-23.93a90.25,90.25,0,0,0,1.4-10.46c0-2.17-7.69-1.53-8.39,0a88.21,88.21,0,0,0-3.82,14c-1.69,10.2-7,18.51-14.24,25.59-3.78,3.7-7.15,2.62-8.46-2.6-1.23-4.88-2.37-7.89-2.56-13.61s0.74-8,1.16-11.3c0.59-4.67,13.06-32,23.5-29.56,3,1,3.44,4.16,4.18,6.84a47.63,47.63,0,0,0,1.13,5c0.82,2.31,6.88,1,7.29,0a23,23,0,0,0,1.24-4.54c1-6.87,0-11.74-1.63-14.21-2.07-3.12-4.51-5.63-8.45-6.09a22.31,22.31,0,0,0-16.8,4.56c-6.39,4.88-10.34,11.49-13.6,18.62-1.5,3.28-2.57,6.83-4.52,9.82-3.8,5.82-8,11.35-12.17,16.95a14,14,0,0,1-2.43,2.08l-0.73-.44a28.21,28.21,0,0,1,.31-3c1.22-5.82,2.95-11.58,3.62-17.46s0.67-13.67-.83-16.48-2.49-3.95-8.11-4.93c-4.14-.72-10.64,3.12-11.6,2.86a25.89,25.89,0,0,1,1.44-3.29c1.48-2.27,3-4.53,4.59-6.71,7.8-10.52,14.6-21.58,17.86-34.43,3.11-12.27,3-24.34-3.05-35.87-2.07-4-5-4.55-7.83-1.05a66.46,66.46,0,0,0-7.32,11.34c-10.91,21.57-16.54,44.86-21.67,68.28-2.61,11.91-5,23.87-9.29,35.31-2.17,5.74-4.43,11.45-6.83,17.1a3.65,3.65,0,0,1-2.56,1.92c-0.69,0-1.63-1.19-2.17-2a6.53,6.53,0,0,1-1-2.79c-0.43-4.31-1-8.62-1-12.94a108.84,108.84,0,0,1,6.26-35.57c2.43-7.06,3.75-14.51,5.46-21.81,0.43-1.83.21-3.72-1.73-4.71s-3.74-.24-5.08,1.31a15.87,15.87,0,0,0-2.4,3.57,35.34,35.34,0,0,0-2.22,5.82c-2.42,9-4.85,18-7,27-1.44,5.94-2.6,6.47-7.89,3.72a16.21,16.21,0,0,0-16.53.38,23.49,23.49,0,0,1-3.1,1.28,15.84,15.84,0,0,1-.61-3.49c0.35-7.12,1-14.22,1.13-21.34a14.83,14.83,0,0,0-1.64-6.45c-1.49-3.11-4.7-3.39-7.14-.9a8.5,8.5,0,0,0-2.07,9.23c0.73,2.29,1.63,4.73,1.51,7.05-0.3,5.85-1.07,11.68-1.78,17.51-1.43,11.75-3.14,23.49-2.32,35.36a49.37,49.37,0,0,0,2.3,11.63c1.63,5,6.24,7.91,11.56,7.62a22.1,22.1,0,0,0,14.34-6.32c2.58-2.48,4.66-5.49,7-8.2a19.36,19.36,0,0,1,2.38-2,25.49,25.49,0,0,1,1.63,2.33c0.43,0.78.67,1.68,1,2.5,2.74,6.16,9.46,7.7,14.5,3.19,1.87-1.67,3.36-3.76,5.08-5.6,0.76-.82,1.67-1.51,2.51-2.27a26.19,26.19,0,0,1,1.7,2.85c1.27,2.88,2.2,5.94,3.7,8.68,2.48,4.51,6.51,6.19,11.25,4.1,5.34-2.35,11-4.77,15.31-8.5,6-5.13,14.11-14.44,19.5-20.26,1-1.07-1.1,1,0,0a25.17,25.17,0,0,1,1.1,4.42c0.47,6.79,1,13.57,4.37,19.66,3.19,5.76,9.1,7.17,14.84,3.88,6.32-3.62,10.52-9.24,14.49-15.11,3.42-5,3.48-5,6.83.22,5.07,7.93,11.74,13.72,21.22,15.53,1.39,0.27,3.63-.06,4.32-1s0.38-3.28-.39-4.36c-3.82-5.28-2.85-10.48,0-15.51,3.45-6,8.87-10.18,14.29-14.27a31.66,31.66,0,0,1,4.87-2.53,50.2,50.2,0,0,1,.38,5.65c-0.31,7.48-1.1,15-1,22.42,0.06,3.77,1.46,7.59,2.67,11.24,0.83,2.51,3.06,3.55,5.78,3.7,3.74,0.2,6.7-1.42,9.3-3.75,11.45-10.3,22.12-21.31,30.66-34.22a10.7,10.7,0,0,1,2.34-2c0.52,1,1.38,1.92,1.5,2.95,0.39,3.13.34,6.31,0.74,9.44,0.8,6.27,1.67,12.53,2.78,18.74,0.23,1.3,1.42,3.15,2.48,3.4a5.57,5.57,0,0,0,4.28-1.45,9.34,9.34,0,0,0,2.66-4.58c1-4.58,1.8-9.23,2.35-13.89,1.71-14.35,3-28.79,7.24-42.68a86.46,86.46,0,0,1,6.48-14.55c1.56-3,3.35-2.68,5.16.23s1.79,5.7.54,9a119.23,119.23,0,0,0-5.8,18.3c-1.64,8-2.28,16.24-3.43,24.36-1.08,7.64,0,15.15,1.38,22.61,0.74,3.9,4.3,4.93,7.08,2.06a29.4,29.4,0,0,0,4.69-6.58c5-9.43,7.8-19.58,9.33-30.13,1.59-11,2.44-21.93.31-32.88-0.71-3.63.63-5.91,3.19-8,2.23-1.77,3.95-1.43,4.67,1.32a61.57,61.57,0,0,1,2,10.6c1.2,14.4-2.35,28.16-5.87,41.93-1.52,5.94-2.69,12-3.81,18-0.34,1.8.16,3.76,2.29,4.41A4.06,4.06,0,0,0,582,378a36.34,36.34,0,0,0,2.63-6.19c4.18-12,8.29-24.07,12.49-36.08a21.73,21.73,0,0,1,2.09-3.59,3.34,3.34,0,0,1,.82.69c0.13,0.7.19,1.42,0.32,2.12,1.36,7.25,1.82,14.83,4.28,21.69,6.4,17.86,25.09,30.63,45.65,26.27a11.54,11.54,0,0,1,6.72.84c8.85,4,17.62,3.55,26.23-.27,8.34-3.7,13.46-10.84,17.63-18.54,3.65-6.74,6.66-13.83,10-20.73a44.25,44.25,0,0,1,2.48-4l1.07,0.36c0.11,1.38.3,2.76,0.3,4.14a73.62,73.62,0,0,0,2.79,21.68c2.46,8,6.09,15.31,12.81,20.62,8.62,6.8,18.58,8.68,29.32,7.9,18.77-1.36,37.11-15.57,39.78-36.37A74.76,74.76,0,0,0,799.79,342Zm-501.33-8.82c1.29,0,2.17.64,2.14,1.14a1.56,1.56,0,0,1-1.57,1.84,1.87,1.87,0,0,1-2-1.9C296.89,333.73,297.17,333.2,298.46,333.19Zm1.08,33.94a21.56,21.56,0,0,1-6.63,3.41c-2.44.83-5.4-.91-6.38-4.19-1.24-4.17-2-12.95-1.78-13s-0.16-4.16,0-6.21c0.24-2.43,1.36-3.07,3.47-1.95,4.3,2.29,8.81,2.28,13.44,1.61a18.9,18.9,0,0,1,3-.22,2.41,2.41,0,0,1,2.64,3C306.55,356.23,305.06,362.67,299.54,367.14Zm55.64-71.57a212,212,0,0,1,16.61-45.11c0.08-.16,2-2,2.86-2.8,0.38,1,4.85,9-3.52,26-4,8.06-9,15.62-13.5,23.4-0.5.86-4.58,7.83-5.06,7.49C352.69,303.48,354.93,296.56,355.18,295.57Zm16.45,41.07a80,80,0,0,1-9.89,28,15.29,15.29,0,0,1-4.89,5.25c-4.18,2.67-8.46.92-9.72-3.86a91.67,91.67,0,0,1-1.51-9.27c1.55-13.38,2.53-24.75,13-33.19,4.2-3.4,11.9-2,12.91,3.43A30.52,30.52,0,0,1,371.63,336.65Zm132.55-13.87c-0.92,8.68-2,17.38-3.75,25.93a64.14,64.14,0,0,1-9.32,22.37c-0.95,1.44-2.75,3.28-4.13,3.26-2.39,0-2.36-2.81-2.71-4.69-0.39-2.12-.48-4.29-0.7-6.44-0.18,0,2.16-17.75,3.87-26.48a125.56,125.56,0,0,1,4.51-17,76,76,0,0,1,5.94-12.11c0.65-1.15,2.62-2.65,3.43-2.37a4.89,4.89,0,0,1,2.7,3.52A77,77,0,0,1,504.18,322.77ZM561.81,354c0-6,.28-11.39,2.32-17.25C566.11,340.11,564.56,351.75,561.81,354Zm96.43,12.16c-0.82-.47-2.58-1.64-2-3.15a96.11,96.11,0,0,1,4-10.1c0.57-1.09,2.83-2.22,3.93-1.92,1.93,0.53,1.94,2.73,1.22,4.37a103,103,0,0,1-4.69,9.36C660.29,365.52,658.69,366.44,658.25,366.19Zm41.3-23.74c-1.21,2.92-3.56,4.24-6.5,4.62a7,7,0,0,1-7.15-3.41A23.89,23.89,0,0,1,682.28,330c0.2-10,2-19.76,6.7-28.73a29.78,29.78,0,0,1,5.11-6.92c4.2-4.28,9-3.26,11.29,2.29a18.47,18.47,0,0,1,1.16,5.51c0.19,2.51,0,5.05,0,8.43C707.49,321.32,703.91,332,699.54,342.46Z" transform="translate(-24.57 -24.62)"/></svg>