<?xml version="1.0" encoding="iso-8859-1"?>
<!-- Generator: Adobe Illustrator 19.0.0, SVG Export Plug-In . SVG Version: 6.00 Build 0)  -->
<svg version="1.1" id="Capa_1" xmlns="http://www.w3.org/2000/svg" xmlns:xlink="http://www.w3.org/1999/xlink" x="0px" y="0px"
	 viewBox="0 0 464.021 464.021" style="enable-background:new 0 0 464.021 464.021;" xml:space="preserve">
<g>
	<path style="fill:#FFEBE1;" d="M328.01,95.994v20.808c0,12.2-13.106,19.911-23.77,13.987l-10.79-5.994l-6.6,5.5
		c-3.653,3.044-9.14,2.249-11.778-1.708l-14.826-22.239l-4.235-2.353c0,4.418-3.582,8-8,8h-8v56v64v64v64v64v40h40l96-408
		L328.01,95.994z"/>
	<path style="fill:#FFEBE1;" d="M224.01,359.994v-64v-64v-64v-56h-8c-4.418,0-8-3.582-8-8l-4.235,2.353l-14.826,22.239
		c-2.638,3.957-8.125,4.753-11.778,1.708l-6.601-5.5l-10.79,5.994c-10.664,5.925-23.77-1.787-23.77-13.987V95.994l-48-40l96,408h40
		v-40V359.994z"/>
	<path style="fill:#FFE1C8;" d="M136.01,59.186c0-12.2,13.106-19.911,23.77-13.987l48.23,26.794c0-4.418,3.582-8,8-8h16
		l-94.5-62.091c-5.253-3.452-12.308-2.007-15.782,3.232L88.01,55.994l48,40V59.186z"/>
	<path style="fill:#FFE1C8;" d="M177.171,130.294c3.653,3.044,9.14,2.249,11.778-1.708l14.826-22.239l-33.205,18.447
		L177.171,130.294z"/>
	<path style="fill:#FFE1C8;" d="M256.01,71.994L304.24,45.2c10.665-5.925,23.77,1.787,23.77,13.987v36.808l48-40L342.292,5.135
		c-3.473-5.239-10.529-6.684-15.782-3.232l-94.5,62.091h16C252.429,63.994,256.01,67.576,256.01,71.994z"/>
	<path style="fill:#FFE1C8;" d="M275.072,128.586c2.638,3.957,8.125,4.753,11.778,1.708l6.6-5.5l-33.205-18.447L275.072,128.586z"/>
	<path style="fill:#D2504B;" d="M208.01,95.994h-24c-4.418,0-8-3.582-8-8s3.582-8,8-8h24v-8L159.781,45.2
		c-10.664-5.925-23.77,1.787-23.77,13.987v36.808v20.808c0,12.2,13.106,19.911,23.77,13.987l10.79-5.994l33.205-18.447l4.235-2.353
		V95.994z"/>
	<path style="fill:#BE3C3C;" d="M208.01,71.994l0.828,34.963L208.01,71.994v8h-24c-4.418,0-8,3.582-8,8s3.582,8,8,8h24v8
		c0,4.418,3.582,8,8,8h8h16h8c4.418,0,8-3.582,8-8v-8h24c4.418,0,8-3.582,8-8s-3.582-8-8-8h-24v-8c0-4.418-3.582-8-8-8h-16h-16
		C211.592,63.994,208.01,67.576,208.01,71.994z"/>
	
		<line style="fill:none;stroke:#D2504B;stroke-width:0;stroke-linecap:round;stroke-linejoin:round;" x1="208.01" y1="71.994" x2="208.838" y2="106.957"/>
	<path style="fill:#D2504B;" d="M328.01,59.186c0-12.2-13.106-19.911-23.77-13.987l-48.23,26.794v8h24c4.418,0,8,3.582,8,8
		s-3.582,8-8,8h-24v8l4.235,2.353l33.205,18.447l10.79,5.994c10.665,5.925,23.77-1.787,23.77-13.987V95.994V59.186z"/>
	<path style="fill:#6B3C41;" d="M8.385,75.9C0.655,77.833-2.557,87.057,2.301,93.372l69.709,90.622l-29.658,29.658
		c-6.209,6.209-7.87,15.639-4.157,23.596L144.01,463.994h40l-96-408L8.385,75.9z"/>
	<path style="fill:#6B3C41;" d="M455.636,75.9L376.01,55.994l-96,408h40l105.815-226.746c3.713-7.957,2.052-17.387-4.157-23.596
		l-29.658-29.658l69.709-90.622C466.577,87.057,463.365,77.833,455.636,75.9z"/>
	<path style="fill:#FFE1C8;" d="M232.01,431.994c-4.418,0-8-3.582-8-8v40h8h8v-40C240.01,428.412,236.429,431.994,232.01,431.994z"
		/>
	<path style="fill:#FFE1C8;" d="M232.01,239.994c-4.418,0-8-3.582-8-8v64c0-4.418,3.582-8,8-8c4.418,0,8,3.582,8,8v-64
		C240.01,236.412,236.429,239.994,232.01,239.994z"/>
	<path style="fill:#FFE1C8;" d="M232.01,175.994c-4.418,0-8-3.582-8-8v64c0-4.418,3.582-8,8-8c4.418,0,8,3.582,8,8v-64
		C240.01,172.412,236.429,175.994,232.01,175.994z"/>
	<path style="fill:#FFE1C8;" d="M232.01,367.994c-4.418,0-8-3.582-8-8v64c0-4.418,3.582-8,8-8c4.418,0,8,3.582,8,8v-64
		C240.01,364.412,236.429,367.994,232.01,367.994z"/>
	<path style="fill:#FFE1C8;" d="M224.01,167.994c0-4.418,3.582-8,8-8c4.418,0,8,3.582,8,8v-56h-16V167.994z"/>
	<path style="fill:#FFE1C8;" d="M232.01,303.994c-4.418,0-8-3.582-8-8v64c0-4.418,3.582-8,8-8c4.418,0,8,3.582,8,8v-64
		C240.01,300.412,236.429,303.994,232.01,303.994z"/>
	<circle style="fill:#FFC3A5;" cx="232.01" cy="167.994" r="8"/>
	<circle style="fill:#FFC3A5;" cx="232.01" cy="231.994" r="8"/>
	<circle style="fill:#FFC3A5;" cx="232.01" cy="295.994" r="8"/>
	<circle style="fill:#FFC3A5;" cx="232.01" cy="359.994" r="8"/>
	<circle style="fill:#FFC3A5;" cx="232.01" cy="423.994" r="8"/>
</g>
<g>
</g>
<g>
</g>
<g>
</g>
<g>
</g>
<g>
</g>
<g>
</g>
<g>
</g>
<g>
</g>
<g>
</g>
<g>
</g>
<g>
</g>
<g>
</g>
<g>
</g>
<g>
</g>
<g>
</g>
</svg>
