<svg id="Layer_1" data-name="Layer 1" xmlns="http://www.w3.org/2000/svg" viewBox="0 0 512 289.75"><defs><style>.cls-1{fill:#fff;}</style></defs><title>vk</title><g id="_Group_" data-name="&lt;Group&gt;"><path id="_Path_" data-name="&lt;Path&gt;" class="cls-1" d="M440.65,295.36c17,16.58,34.91,32.18,50.14,50.44,6.73,8.11,13.1,16.48,18,25.9,6.91,13.38.65,28.11-11.35,28.91l-74.59,0c-19.24,1.6-34.58-6.15-47.49-19.3-10.33-10.52-19.89-21.71-29.82-32.59a70.63,70.63,0,0,0-13.42-11.93c-10.18-6.61-19-4.59-24.84,6-5.93,10.8-7.27,22.76-7.85,34.8-0.8,17.56-6.11,22.18-23.75,23-37.71,1.78-73.49-3.93-106.73-22.95-29.31-16.77-52-40.44-71.82-67.24-38.51-52.18-68-109.53-94.52-168.47-6-13.28-1.6-20.41,13.05-20.66,24.33-.47,48.66-0.44,73,0,9.89,0.14,16.44,5.82,20.26,15.16,13.17,32.37,29.27,63.17,49.49,91.72,5.38,7.6,10.88,15.2,18.69,20.55,8.65,5.92,15.24,4,19.31-5.68a63.64,63.64,0,0,0,4.29-19.23c1.93-22.51,2.18-45-1.2-67.42-2.08-14-10-23.06-23.93-25.71-7.13-1.35-6.07-4-2.62-8.07,6-7,11.63-11.39,22.87-11.39h84.3c13.27,2.62,16.22,8.58,18,21.93l0.07,93.64c-0.14,5.17,2.58,20.51,11.89,23.93,7.45,2.44,12.36-3.53,16.84-8.25,20.18-21.42,34.59-46.74,47.46-73C380.13,157.9,385,145.93,389.8,134c3.53-8.88,9.06-13.24,19.06-13L490,121a42.8,42.8,0,0,1,7.17.43c13.67,2.33,17.42,8.21,13.2,21.56-6.65,20.95-19.6,38.4-32.25,55.94-13.53,18.72-28,36.8-41.42,55.63-12.33,17.2-11.35,25.87,4,40.8h0Z" transform="translate(0 -111.12)"/></g></svg>